<!--?xml version="1.0" standalone="no"?-->
              <svg id="sw-js-blob-svg" viewBox="0 0 100 100" xmlns="http://www.w3.org/2000/svg" class="cursor-hover" version="1.1">
                    <defs> 
                        <linearGradient id="sw-gradient" x1="0" x2="1" y1="1" y2="0">
                            <stop id="stop1" stop-color="rgba(198, 131, 215, 1)" offset="0%"></stop>
                            <stop id="stop2" stop-color="rgba(255, 199, 199, 1)" offset="100%"></stop>
                        </linearGradient>
                    </defs>
                <path fill="url(#sw-gradient)" d="M22,-26.7C27.5,-21.7,30.2,-13.7,29.4,-6.9C28.5,0,24.2,5.7,20.6,11.9C17,18,14.2,24.6,9.5,26.5C4.8,28.5,-1.8,25.8,-9.4,23.9C-17,22,-25.6,20.9,-31.7,15.7C-37.8,10.5,-41.5,1.3,-38.9,-5.7C-36.3,-12.8,-27.6,-17.6,-20.1,-22.3C-12.5,-27,-6.3,-31.5,1,-32.7C8.3,-33.9,16.6,-31.8,22,-26.7Z" width="100%" height="100%" transform="translate(50 50)" stroke-width="0" style="transition: all 0.3s ease 0s;" class="cursor-hover"></path>
              </svg>